<svg width="607" height="143" viewBox="0 0 607 143" fill="none" xmlns="http://www.w3.org/2000/svg">
<path d="M81.7223 74.9131C80.5977 85.8257 76.4937 94.3222 69.4102 100.402C62.3271 106.436 52.9498 109.403 41.2784 109.303C33.1224 109.233 25.9438 107.25 19.7425 103.353C13.5885 99.4096 8.85453 93.8611 5.54057 86.7075C2.2266 79.5539 0.539585 71.2658 0.479514 61.843L0.561266 52.2809C0.643819 42.625 2.42743 34.1321 5.91209 26.8022C9.39676 19.4724 14.3435 13.8426 20.7523 9.91287C27.208 5.98355 34.6311 4.05475 43.0214 4.12648C54.3178 4.22306 63.385 7.371 70.2229 13.5703C77.0608 19.7696 80.9943 28.4754 82.0235 39.6878L64.3054 39.5363C63.5246 32.17 61.4137 26.8549 57.9727 23.591C54.579 20.2806 49.5542 18.5969 42.8981 18.54C35.1641 18.4739 29.1869 21.2588 24.9667 26.8948C20.7937 32.4844 18.6137 40.7395 18.4266 51.6601L18.3491 60.7301C18.2545 71.7922 20.151 80.2462 24.0387 86.0922C27.9732 91.9385 33.7607 94.8944 41.401 94.9597C48.3851 95.0194 53.6484 93.494 57.1907 90.3836C60.7331 87.2731 63.0042 82.0658 64.0042 74.7616L81.7223 74.9131ZM122.56 108.592L105.475 108.445L106.398 0.449416L123.484 0.595487L122.56 108.592ZM168.042 108.98L150.957 108.834L151.607 32.759L168.693 32.905L168.042 108.98ZM150.722 12.9929C150.744 10.368 151.583 8.19537 153.238 6.47508C154.941 4.7552 157.339 3.90848 160.432 3.93493C163.526 3.96138 165.909 4.84897 167.582 6.59771C169.254 8.34645 170.079 10.5333 170.057 13.1582C170.035 15.7362 169.173 17.8852 167.47 19.605C165.769 21.2781 163.371 22.1013 160.277 22.0749C157.184 22.0484 154.8 21.1843 153.127 19.4824C151.502 17.7341 150.7 15.5709 150.722 12.9929ZM211.855 33.2741L212.272 42.067C217.955 35.3185 225.366 31.9833 234.506 32.0614C250.35 32.1969 258.334 41.3358 258.46 59.4781L258.031 109.75L240.945 109.604L241.367 60.3164C241.408 55.4885 240.384 51.9171 238.294 49.6023C236.252 47.241 232.863 46.0401 228.129 45.9996C221.239 45.9407 216.08 49.0139 212.651 55.2192L212.189 109.358L195.103 109.212L195.754 33.1364L211.855 33.2741ZM310.964 85.7326L326.873 34.2574L345.083 34.4131L314.101 121.761C309.351 134.518 301.422 140.848 290.313 140.753C287.829 140.732 285.09 140.287 282.098 139.418L282.211 126.199L285.443 126.438C289.755 126.475 292.996 125.706 295.166 124.13C297.382 122.602 299.139 119.992 300.436 116.3L302.953 109.782L276.883 33.83L295.304 33.9875L310.964 85.7326Z" fill="black"/>
<path d="M394.371 66.6872L382.665 78.8923L382.392 110.813L364.604 110.661L365.479 8.28963L383.267 8.44171L382.857 56.4634L392.804 44.3839L423.063 8.78194L444.578 8.96588L406.152 53.9906L445.882 111.356L424.789 111.175L394.371 66.6872ZM494.094 113.174C483.266 113.082 474.507 109.608 467.815 102.754C461.171 95.8531 457.897 86.731 457.994 75.3877L458.012 73.2784C458.077 65.6849 459.588 58.9242 462.545 52.9961C465.549 47.0216 469.714 42.3929 475.039 39.1102C480.364 35.8275 486.284 34.214 492.8 34.2697C503.159 34.3583 511.122 37.7311 516.691 44.3884C522.306 51.046 525.062 60.4215 524.958 72.5148L524.899 79.4051L475.19 78.9802C475.652 85.2656 477.696 90.252 481.321 93.9394C484.992 97.6271 489.617 99.4949 495.195 99.5426C503.023 99.6095 509.425 96.5 514.4 90.2142L523.536 99.0817C520.45 103.602 516.342 107.106 511.211 109.594C506.128 112.035 500.422 113.228 494.094 113.174ZM492.612 47.9795C487.925 47.9395 484.114 49.5476 481.18 52.8038C478.293 56.0605 476.426 60.615 475.579 66.4674L508.132 66.7457L508.143 65.4801C507.817 59.7584 506.33 55.433 503.683 52.504C501.037 49.5282 497.346 48.02 492.612 47.9795ZM572.421 87.968L588.331 36.4927L606.541 36.6484L575.559 123.996C570.809 136.753 562.879 143.084 551.77 142.989C549.286 142.968 546.548 142.522 543.555 141.653L543.668 128.435L546.9 128.673C551.213 128.71 554.454 127.941 556.624 126.366C558.84 124.838 560.597 122.228 561.894 118.535L564.411 112.018L538.34 36.0653L556.761 36.2228L572.421 87.968Z" fill="#4285F4"/>
</svg>
