<?xml version="1.0" encoding="iso-8859-1"?>
<!-- Generator: Adobe Illustrator 19.0.0, SVG Export Plug-In . SVG Version: 6.00 Build 0)  -->
<svg version="1.1" id="Capa_1" xmlns="http://www.w3.org/2000/svg" xmlns:xlink="http://www.w3.org/1999/xlink" x="0px" y="0px"
	 viewBox="0 0 512.001 512.001" style="enable-background:new 0 0 512.001 512.001;" xml:space="preserve">
<path style="fill:#FFE7A5;" d="M482.474,214.809v144.978c0,2.283-1.851,4.134-4.134,4.134l0,0c-2.283,0-4.134-1.851-4.134-4.134
	V255.079c0-3.419-4.134-5.132-6.553-2.715l0,0c-0.72,0.72-1.124,1.697-1.124,2.715v65.141c0,1.304-1.057,2.362-2.362,2.362l0,0
	c-1.304,0-2.362-1.057-2.362-2.362v-14.173c0-2.283-1.851-4.134-4.134-4.134l0,0c-2.283,0-4.134,1.851-4.134,4.134v23.621
	c0,2.609-2.115,4.724-4.724,4.724l0,0c-2.609,0-4.724-2.115-4.724-4.724v-22.721c0-12.1-14.63-18.161-23.187-9.605l-7.728,7.728
	c-14.614,14.614-22.824,34.436-22.824,55.103v31.795c0,5.377-4.356,9.738-9.733,9.744h-0.011c-5.38,0.006-9.744-4.353-9.745-9.733
	l-0.002-28.083c0-2.824-3.415-4.239-5.412-2.242l0,0c-2.961,2.961-4.624,6.973-4.624,11.16c0,1.013,0,2.076,0,3.135
	c0,5.097-4.131,9.228-9.228,9.229h-0.146c-1.672,0-3.028-1.355-3.028-3.027v-0.128c0-2.813-3.353-4.25-5.368-2.308
	c-10.951,10.547-36.144,35.279-51.746,50.617c-8.503,8.36-19.882,13.139-31.803,13.365l-4.831,0.091l215.4-219.238L482.474,214.809z
	"/>
<linearGradient id="SVGID_1_" gradientUnits="userSpaceOnUse" x1="271.1697" y1="290.4635" x2="383.2797" y2="178.3435" gradientTransform="matrix(1.0039 0 0 -1.0039 0.1922 516.5623)">
	<stop  offset="0" style="stop-color:#FFE7A5"/>
	<stop  offset="0.216" style="stop-color:#FFE29C"/>
	<stop  offset="0.577" style="stop-color:#FFD482"/>
	<stop  offset="1" style="stop-color:#FFBF5C"/>
</linearGradient>
<path style="fill:url(#SVGID_1_);" d="M496.549,200.16L496.549,200.16l-216.622,233.36c-12.915,13.913-34.934,13.913-47.85,0
	L15.454,200.161l0,0C148.305,67.309,363.698,67.309,496.549,200.16z"/>
<radialGradient id="SVGID_2_" cx="260.1" cy="42.9937" r="383.82" gradientTransform="matrix(1.0039 0 0 -1.0039 0.1922 516.5623)" gradientUnits="userSpaceOnUse">
	<stop  offset="0" style="stop-color:#FFBF5C;stop-opacity:0"/>
	<stop  offset="0.452" style="stop-color:#FFBD5A;stop-opacity:0.452"/>
	<stop  offset="0.614" style="stop-color:#FFB654;stop-opacity:0.614"/>
	<stop  offset="0.73" style="stop-color:#FFAB49;stop-opacity:0.73"/>
	<stop  offset="0.824" style="stop-color:#FF9A39;stop-opacity:0.824"/>
	<stop  offset="0.904" style="stop-color:#FF8424;stop-opacity:0.904"/>
	<stop  offset="0.974" style="stop-color:#FF690B;stop-opacity:0.974"/>
	<stop  offset="1" style="stop-color:#FF5D00"/>
</radialGradient>
<path style="fill:url(#SVGID_2_);" d="M401.65,302.391l94.899-102.23l0,0c-132.851-132.851-348.244-132.851-481.095,0l0,0
	l94.899,102.23C202.294,258.848,309.709,258.848,401.65,302.391z"/>
<radialGradient id="SVGID_3_" cx="245.99" cy="134.6737" r="313.27" gradientTransform="matrix(1.0039 0 0 -1.0039 0.1922 516.5623)" gradientUnits="userSpaceOnUse">
	<stop  offset="0" style="stop-color:#FF5D00"/>
	<stop  offset="0.452" style="stop-color:#FF5F02"/>
	<stop  offset="0.614" style="stop-color:#FF6608"/>
	<stop  offset="0.73" style="stop-color:#FF7113"/>
	<stop  offset="0.824" style="stop-color:#FF8223"/>
	<stop  offset="0.904" style="stop-color:#FF9838"/>
	<stop  offset="0.974" style="stop-color:#FFB351"/>
	<stop  offset="1" style="stop-color:#FFBF5C"/>
</radialGradient>
<path style="fill:url(#SVGID_3_);" d="M504.316,205.674L504.316,205.674c10.755-11.427,10.158-29.468-1.396-40.086
	c-141.52-130.056-352.318-130.056-493.839,0c-11.554,10.618-12.151,28.659-1.396,40.086l0,0c10.54,11.198,28.123,11.915,39.5,1.568
	c122.632-111.509,294.997-111.509,417.629,0C476.194,217.589,493.776,216.872,504.316,205.674z"/>
<linearGradient id="SVGID_4_" gradientUnits="userSpaceOnUse" x1="285.5882" y1="115.832" x2="196.3582" y2="205.0719" gradientTransform="matrix(1.0039 0 0 -1.0039 0.1922 516.5623)">
	<stop  offset="0" style="stop-color:#FFBF5C;stop-opacity:0"/>
	<stop  offset="1" style="stop-color:#FFBF5C"/>
</linearGradient>
<path style="fill:url(#SVGID_4_);" d="M337.384,400.6L235.578,298.793c-6.477-6.934-15.696-11.274-25.934-11.274
	c-19.602,0-35.492,15.89-35.492,35.492c0,10.237,4.34,19.456,11.274,25.934l51.636,51.636L337.384,400.6z"/>
<linearGradient id="SVGID_5_" gradientUnits="userSpaceOnUse" x1="189.445" y1="211.9787" x2="235.005" y2="166.4187" gradientTransform="matrix(1.0039 0 0 -1.0039 0.1922 516.5623)">
	<stop  offset="0" style="stop-color:#FF5964"/>
	<stop  offset="0.242" style="stop-color:#FF505B"/>
	<stop  offset="0.643" style="stop-color:#FF3841"/>
	<stop  offset="1" style="stop-color:#FF1D25"/>
</linearGradient>
<circle style="fill:url(#SVGID_5_);" cx="209.64" cy="323.013" r="35.489"/>
<linearGradient id="SVGID_6_" gradientUnits="userSpaceOnUse" x1="358.739" y1="140.0427" x2="313.339" y2="185.4427" gradientTransform="matrix(1.0039 0 0 -1.0039 0.1922 516.5623)">
	<stop  offset="0" style="stop-color:#FFBF5C;stop-opacity:0"/>
	<stop  offset="1" style="stop-color:#FFBF5C"/>
</linearGradient>
<path style="fill:url(#SVGID_6_);" d="M370.484,335.961l-48.286,52.024l-39.038-39.038c-6.936-6.484-11.276-15.696-11.276-25.936
	c0-19.603,15.891-35.495,35.495-35.495c10.24,0,19.452,4.34,25.936,11.276L370.484,335.961z"/>
<linearGradient id="SVGID_7_" gradientUnits="userSpaceOnUse" x1="286.8" y1="211.9837" x2="332.36" y2="166.4237" gradientTransform="matrix(1.0039 0 0 -1.0039 0.1922 516.5623)">
	<stop  offset="0" style="stop-color:#FF5964"/>
	<stop  offset="0.242" style="stop-color:#FF505B"/>
	<stop  offset="0.643" style="stop-color:#FF3841"/>
	<stop  offset="1" style="stop-color:#FF1D25"/>
</linearGradient>
<circle style="fill:url(#SVGID_7_);" cx="307.382" cy="323.013" r="35.489"/>
<linearGradient id="SVGID_8_" gradientUnits="userSpaceOnUse" x1="203.5295" y1="218.1933" x2="114.2995" y2="307.4232" gradientTransform="matrix(1.0039 0 0 -1.0039 0.1922 516.5623)">
	<stop  offset="0" style="stop-color:#FFBF5C;stop-opacity:0"/>
	<stop  offset="1" style="stop-color:#FFBF5C"/>
</linearGradient>
<path style="fill:url(#SVGID_8_);" d="M255.003,297.845L153.197,196.039c-6.477-6.934-15.696-11.274-25.934-11.274
	c-19.602,0-35.492,15.89-35.492,35.492c0,10.237,4.34,19.456,11.274,25.934l51.636,51.636L255.003,297.845z"/>
<linearGradient id="SVGID_9_" gradientUnits="userSpaceOnUse" x1="107.39" y1="314.3337" x2="152.95" y2="268.7737" gradientTransform="matrix(1.0039 0 0 -1.0039 0.1922 516.5623)">
	<stop  offset="0" style="stop-color:#FF5964"/>
	<stop  offset="0.242" style="stop-color:#FF505B"/>
	<stop  offset="0.643" style="stop-color:#FF3841"/>
	<stop  offset="1" style="stop-color:#FF1D25"/>
</linearGradient>
<circle style="fill:url(#SVGID_9_);" cx="127.269" cy="220.261" r="35.489"/>
<linearGradient id="SVGID_10_" gradientUnits="userSpaceOnUse" x1="331.7733" y1="245.5471" x2="242.5333" y2="334.7771" gradientTransform="matrix(1.0039 0 0 -1.0039 0.1922 516.5623)">
	<stop  offset="0" style="stop-color:#FFBF5C;stop-opacity:0"/>
	<stop  offset="1" style="stop-color:#FFBF5C"/>
</linearGradient>
<path style="fill:url(#SVGID_10_);" d="M383.742,270.385L281.936,168.578c-6.477-6.934-15.696-11.274-25.934-11.274
	c-19.602,0-35.492,15.89-35.492,35.492c0,10.237,4.34,19.456,11.274,25.934l51.636,51.636L383.742,270.385z"/>
<linearGradient id="SVGID_11_" gradientUnits="userSpaceOnUse" x1="235.62" y1="341.6937" x2="281.19" y2="296.1237" gradientTransform="matrix(1.0039 0 0 -1.0039 0.1922 516.5623)">
	<stop  offset="0" style="stop-color:#FF5964"/>
	<stop  offset="0.242" style="stop-color:#FF505B"/>
	<stop  offset="0.643" style="stop-color:#FF3841"/>
	<stop  offset="1" style="stop-color:#FF1D25"/>
</linearGradient>
<circle style="fill:url(#SVGID_11_);" cx="256.001" cy="192.794" r="35.489"/>
<linearGradient id="SVGID_12_" gradientUnits="userSpaceOnUse" x1="447.2387" y1="230.9525" x2="368.8387" y2="309.3525" gradientTransform="matrix(1.0039 0 0 -1.0039 0.1922 516.5623)">
	<stop  offset="0" style="stop-color:#FFBF5C;stop-opacity:0"/>
	<stop  offset="0.17" style="stop-color:#FFB654;stop-opacity:0.17"/>
	<stop  offset="0.443" style="stop-color:#FF9F3E;stop-opacity:0.443"/>
	<stop  offset="0.783" style="stop-color:#FF791A;stop-opacity:0.783"/>
	<stop  offset="1" style="stop-color:#FF5D00"/>
</linearGradient>
<path style="fill:url(#SVGID_12_);" d="M457.196,242.561l-48.286,52.015l-48.392-48.383c-6.927-6.484-11.268-15.696-11.268-25.936
	c0-19.603,15.891-35.495,35.486-35.495c10.24,0,19.461,4.341,25.936,11.276L457.196,242.561z"/>
<linearGradient id="SVGID_13_" gradientUnits="userSpaceOnUse" x1="363.86" y1="314.3337" x2="409.42" y2="268.7737" gradientTransform="matrix(1.0039 0 0 -1.0039 0.1922 516.5623)">
	<stop  offset="0" style="stop-color:#FF5964"/>
	<stop  offset="0.242" style="stop-color:#FF505B"/>
	<stop  offset="0.643" style="stop-color:#FF3841"/>
	<stop  offset="1" style="stop-color:#FF1D25"/>
</linearGradient>
<circle style="fill:url(#SVGID_13_);" cx="384.744" cy="220.261" r="35.489"/>
<linearGradient id="SVGID_14_" gradientUnits="userSpaceOnUse" x1="229.7104" y1="280.3242" x2="172.2204" y2="337.8142" gradientTransform="matrix(1.0039 0 0 -1.0039 0.1922 516.5623)">
	<stop  offset="0" style="stop-color:#FFBF5C;stop-opacity:0"/>
	<stop  offset="1" style="stop-color:#FFBF5C"/>
</linearGradient>
<path style="fill:url(#SVGID_14_);" d="M205.294,181.788c-3.595-3.799-8.678-6.176-14.309-6.176
	c-10.867,0-19.709,8.842-19.709,19.709c0,5.631,2.377,10.714,6.176,14.309l38.79,38.79c3.595,3.8,8.678,6.177,14.309,6.177
	c10.867,0,19.709-8.842,19.709-19.709c0-5.631-2.377-10.713-6.176-14.308L205.294,181.788z"/>
<linearGradient id="SVGID_15_" gradientUnits="userSpaceOnUse" x1="186.8105" y1="323.2242" x2="210.3905" y2="299.6443" gradientTransform="matrix(1.0039 0 0 -1.0039 0.1922 516.5623)">
	<stop  offset="0" style="stop-color:#9EB644"/>
	<stop  offset="1" style="stop-color:#738611"/>
</linearGradient>
<path style="fill:url(#SVGID_15_);" d="M190.985,215.03c-10.867,0-19.709-8.842-19.709-19.709s8.842-19.709,19.709-19.709
	s19.709,8.842,19.709,19.709C210.694,206.188,201.853,215.03,190.985,215.03z M190.985,185.225c-5.567,0-10.095,4.529-10.095,10.095
	s4.529,10.095,10.095,10.095s10.095-4.529,10.095-10.095C201.081,189.754,196.552,185.225,190.985,185.225z"/>
<linearGradient id="SVGID_16_" gradientUnits="userSpaceOnUse" x1="362.5025" y1="280.3262" x2="305.0125" y2="337.8162" gradientTransform="matrix(1.0039 0 0 -1.0039 0.1922 516.5623)">
	<stop  offset="0" style="stop-color:#FFBF5C;stop-opacity:0"/>
	<stop  offset="1" style="stop-color:#FFBF5C"/>
</linearGradient>
<path style="fill:url(#SVGID_16_);" d="M338.609,181.788c-3.595-3.799-8.678-6.176-14.309-6.176
	c-10.867,0-19.709,8.842-19.709,19.709c0,5.631,2.377,10.714,6.176,14.309l38.79,38.79c3.595,3.8,8.678,6.177,14.309,6.177
	c10.867,0,19.709-8.842,19.709-19.709c0-5.631-2.377-10.713-6.176-14.308L338.609,181.788z"/>
<linearGradient id="SVGID_17_" gradientUnits="userSpaceOnUse" x1="319.6075" y1="323.2213" x2="343.1875" y2="299.6413" gradientTransform="matrix(1.0039 0 0 -1.0039 0.1922 516.5623)">
	<stop  offset="0" style="stop-color:#9EB644"/>
	<stop  offset="1" style="stop-color:#738611"/>
</linearGradient>
<path style="fill:url(#SVGID_17_);" d="M324.3,215.03c-10.867,0-19.709-8.842-19.709-19.709s8.842-19.709,19.709-19.709
	s19.709,8.842,19.709,19.709C344.009,206.188,335.168,215.03,324.3,215.03z M324.3,185.225c-5.567,0-10.095,4.529-10.095,10.095
	s4.529,10.095,10.095,10.095c5.567,0,10.095-4.529,10.095-10.095C334.396,189.754,329.867,185.225,324.3,185.225z"/>
<linearGradient id="SVGID_18_" gradientUnits="userSpaceOnUse" x1="176.7685" y1="192.9722" x2="119.2785" y2="250.4622" gradientTransform="matrix(1.0039 0 0 -1.0039 0.1922 516.5623)">
	<stop  offset="0" style="stop-color:#FFBF5C;stop-opacity:0"/>
	<stop  offset="1" style="stop-color:#FFBF5C"/>
</linearGradient>
<path style="fill:url(#SVGID_18_);" d="M152.146,269.483c-3.595-3.799-8.678-6.176-14.309-6.176
	c-10.867,0-19.709,8.842-19.709,19.709c0,5.631,2.377,10.714,6.176,14.309l38.79,38.79c3.595,3.8,8.678,6.177,14.309,6.177
	c10.867,0,19.709-8.842,19.709-19.709c0-5.631-2.377-10.713-6.176-14.308L152.146,269.483z"/>
<linearGradient id="SVGID_19_" gradientUnits="userSpaceOnUse" x1="133.8728" y1="235.8665" x2="157.4528" y2="212.2965" gradientTransform="matrix(1.0039 0 0 -1.0039 0.1922 516.5623)">
	<stop  offset="0" style="stop-color:#9EB644"/>
	<stop  offset="1" style="stop-color:#738611"/>
</linearGradient>
<path style="fill:url(#SVGID_19_);" d="M137.837,302.725c-10.867,0-19.709-8.842-19.709-19.709s8.842-19.709,19.709-19.709
	s19.709,8.842,19.709,19.709S148.704,302.725,137.837,302.725z M137.837,272.921c-5.567,0-10.095,4.529-10.095,10.095
	c0,5.567,4.529,10.095,10.095,10.095s10.095-4.529,10.095-10.095C147.932,277.45,143.404,272.921,137.837,272.921z"/>
<linearGradient id="SVGID_20_" gradientUnits="userSpaceOnUse" x1="295.8799" y1="210.1837" x2="238.39" y2="267.6737" gradientTransform="matrix(1.0039 0 0 -1.0039 0.1922 516.5623)">
	<stop  offset="0" style="stop-color:#FFBF5C;stop-opacity:0"/>
	<stop  offset="1" style="stop-color:#FFBF5C"/>
</linearGradient>
<path style="fill:url(#SVGID_20_);" d="M271.73,252.21c-3.595-3.799-8.678-6.176-14.309-6.176c-10.867,0-19.709,8.842-19.709,19.709
	c0,5.631,2.377,10.714,6.176,14.309l38.79,38.79c3.595,3.8,8.678,6.177,14.309,6.177c10.867,0,19.709-8.842,19.709-19.709
	c0-5.631-2.377-10.713-6.176-14.308L271.73,252.21z"/>
<linearGradient id="SVGID_21_" gradientUnits="userSpaceOnUse" x1="252.9895" y1="253.0732" x2="276.5695" y2="229.4932" gradientTransform="matrix(1.0039 0 0 -1.0039 0.1922 516.5623)">
	<stop  offset="0" style="stop-color:#9EB644"/>
	<stop  offset="1" style="stop-color:#738611"/>
</linearGradient>
<path style="fill:url(#SVGID_21_);" d="M257.421,285.453c-10.867,0-19.709-8.842-19.709-19.709s8.842-19.709,19.709-19.709
	s19.709,8.842,19.709,19.709C277.131,276.611,268.289,285.453,257.421,285.453z M257.421,255.647
	c-5.567,0-10.095,4.529-10.095,10.095c0,5.567,4.529,10.095,10.095,10.095c5.567,0,10.095-4.529,10.095-10.095
	C267.517,260.176,262.988,255.647,257.421,255.647z"/>
<linearGradient id="SVGID_22_" gradientUnits="userSpaceOnUse" x1="280.26" y1="103.6037" x2="239.55" y2="144.3137" gradientTransform="matrix(1.0039 0 0 -1.0039 0.1922 516.5623)">
	<stop  offset="0" style="stop-color:#FFBF5C;stop-opacity:0"/>
	<stop  offset="1" style="stop-color:#FFBF5C"/>
</linearGradient>
<path style="fill:url(#SVGID_22_);" d="M304.208,407.367l-24.28,26.149c-0.85,0.922-1.745,1.78-2.675,2.578l-33.359-33.359
	c-3.8-3.596-6.183-8.672-6.183-14.306c0-10.868,8.841-19.709,19.709-19.709c5.634,0,10.719,2.374,14.315,6.174L304.208,407.367z"/>
<linearGradient id="SVGID_23_" gradientUnits="userSpaceOnUse" x1="252.9913" y1="130.8651" x2="276.5713" y2="107.295" gradientTransform="matrix(1.0039 0 0 -1.0039 0.1922 516.5623)">
	<stop  offset="0" style="stop-color:#9EB644"/>
	<stop  offset="1" style="stop-color:#738611"/>
</linearGradient>
<path style="fill:url(#SVGID_23_);" d="M257.421,408.137c-10.867,0-19.709-8.842-19.709-19.709s8.842-19.709,19.709-19.709
	s19.709,8.842,19.709,19.709S268.289,408.137,257.421,408.137z M257.421,378.333c-5.567,0-10.095,4.529-10.095,10.095
	c0,5.567,4.529,10.095,10.095,10.095c5.567,0,10.095-4.529,10.095-10.095C267.516,382.861,262.988,378.333,257.421,378.333z"/>
<linearGradient id="SVGID_24_" gradientUnits="userSpaceOnUse" x1="390.4914" y1="217.4951" x2="359.3214" y2="248.6551" gradientTransform="matrix(1.0039 0 0 -1.0039 0.1922 516.5623)">
	<stop  offset="0" style="stop-color:#FFBF5C;stop-opacity:0"/>
	<stop  offset="1" style="stop-color:#FFBF5C"/>
</linearGradient>
<path style="fill:url(#SVGID_24_);" d="M412.516,290.678l-26.805,28.878l-22.234-22.234c-3.8-3.596-6.183-8.672-6.183-14.306
	c0-10.868,8.841-19.709,19.709-19.709c5.634,0,10.719,2.374,14.315,6.174L412.516,290.678z"/>
<linearGradient id="SVGID_25_" gradientUnits="userSpaceOnUse" x1="372.1103" y1="235.8641" x2="395.6903" y2="212.2941" gradientTransform="matrix(1.0039 0 0 -1.0039 0.1922 516.5623)">
	<stop  offset="0" style="stop-color:#9EB644"/>
	<stop  offset="1" style="stop-color:#738611"/>
</linearGradient>
<path style="fill:url(#SVGID_25_);" d="M377.006,302.725c-10.867,0-19.709-8.842-19.709-19.709s8.842-19.709,19.709-19.709
	s19.709,8.842,19.709,19.709S387.874,302.725,377.006,302.725z M377.006,272.921c-5.567,0-10.095,4.529-10.095,10.095
	c0,5.567,4.529,10.095,10.095,10.095c5.567,0,10.095-4.529,10.095-10.095C387.102,277.45,382.573,272.921,377.006,272.921z"/>
<g>
</g>
<g>
</g>
<g>
</g>
<g>
</g>
<g>
</g>
<g>
</g>
<g>
</g>
<g>
</g>
<g>
</g>
<g>
</g>
<g>
</g>
<g>
</g>
<g>
</g>
<g>
</g>
<g>
</g>
</svg>
